<svg width="252" height="252" viewBox="0 0 252 252" fill="none" xmlns="http://www.w3.org/2000/svg">
<g clip-path="url(#clip0_278_3081)">
<g filter="url(#filter0_f_278_3081)">
<path d="M33.6826 125.297C33.0314 120.491 37.6786 116.743 41.8746 118.691L113.785 152.059C117.822 153.932 118.418 159.717 114.869 162.579L54.1186 211.573C50.5698 214.436 45.4694 212.284 44.8429 207.661L33.6826 125.297Z" fill="#C6D1E3"/>
</g>
<g opacity="0.2" filter="url(#filter1_f_278_3081)">
<path d="M186.037 110.879C185.483 104.374 192.178 99.7085 198.088 102.481L237.984 121.195C243.895 123.967 244.587 132.098 239.231 135.831L203.077 161.025C197.72 164.757 190.332 161.291 189.778 154.787L186.037 110.879Z" fill="#0142D3"/>
</g>
<g filter="url(#filter2_f_278_3081)">
<path d="M58.0366 33.6593C62.4723 26.8097 72.6597 27.3305 76.3738 34.5968L109.801 99.9938C113.515 107.26 107.97 115.822 99.8201 115.406L26.4712 111.656C18.3214 111.239 13.6788 102.156 18.1145 95.3063L58.0366 33.6593Z" fill="#005CFF" fill-opacity="0.49"/>
</g>
<path d="M125.095 189.973C162.575 189.973 192.958 158.847 192.958 120.452C192.958 82.0557 162.575 50.9297 125.095 50.9297C87.6163 50.9297 57.2334 82.0557 57.2334 120.452C57.2334 158.847 87.6163 189.973 125.095 189.973Z" fill="url(#paint0_linear_278_3081)"/>
<path fill-rule="evenodd" clip-rule="evenodd" d="M34.9214 86.6724C46.8142 79.3562 60.2869 77.9634 73.1862 78.4013C75.0293 78.4638 76.474 80.0453 76.4129 81.9335C76.3518 83.8218 74.8082 85.3018 72.965 85.2392C60.5853 84.819 48.6378 86.2148 38.3595 92.5378C36.7784 93.5104 34.7271 92.9859 33.7778 91.3662C32.8284 89.7465 33.3404 87.645 34.9214 86.6724Z" fill="url(#paint1_linear_278_3081)"/>
<g filter="url(#filter3_f_278_3081)">
<ellipse cx="124.38" cy="206.922" rx="37.5865" ry="8.20558" fill="#C4C1FE"/>
</g>
<path fill-rule="evenodd" clip-rule="evenodd" d="M212.018 142.257C212.967 143.877 212.455 145.979 210.874 146.951C198.983 154.267 185.503 155.66 172.605 155.222C170.762 155.16 169.317 153.578 169.378 151.69C169.439 149.802 170.983 148.322 172.826 148.384C185.205 148.804 197.159 147.408 207.436 141.086C209.017 140.113 211.068 140.638 212.018 142.257Z" fill="url(#paint2_linear_278_3081)"/>
<path d="M45.8085 133.816C46.0723 132.42 48.0717 132.42 48.3356 133.816L49.1485 138.118C49.237 138.587 49.5775 138.968 50.0331 139.108L54.5061 140.488C55.7154 140.861 55.7154 142.572 54.5061 142.945L50.0331 144.325C49.5775 144.465 49.237 144.846 49.1485 145.315L48.3356 149.617C48.0717 151.013 46.0723 151.013 45.8085 149.617L44.9955 145.315C44.907 144.846 44.5665 144.465 44.1109 144.325L39.6379 142.945C38.4286 142.572 38.4286 140.861 39.6379 140.488L44.1109 139.108C44.5665 138.968 44.907 138.587 44.9955 138.118L45.8085 133.816Z" fill="url(#paint3_linear_278_3081)"/>
<path d="M144.722 44.9438C144.985 43.5476 146.985 43.5476 147.249 44.9438L148.062 49.2463C148.15 49.7148 148.491 50.0958 148.946 50.2363L153.419 51.6157C154.629 51.9887 154.629 53.7004 153.419 54.0733L148.946 55.4528C148.491 55.5933 148.15 55.9743 148.062 56.4428L147.249 60.7452C146.985 62.1414 144.985 62.1414 144.722 60.7452L143.909 56.4428C143.82 55.9743 143.48 55.5933 143.024 55.4528L138.551 54.0733C137.342 53.7004 137.342 51.9887 138.551 51.6157L143.024 50.2363C143.48 50.0958 143.82 49.7148 143.909 49.2463L144.722 44.9438Z" fill="url(#paint4_linear_278_3081)"/>
<path d="M62.201 116.661C62.201 118.761 60.8975 120.112 59.6742 120.112C58.4509 120.112 57.1474 118.761 57.1474 116.661C57.1474 114.561 58.4509 113.21 59.6742 113.21C60.8975 113.21 62.201 114.561 62.201 116.661Z" stroke="url(#paint5_linear_278_3081)" stroke-width="1.60737"/>
<path d="M170.314 194.388C170.314 196.488 169.011 197.839 167.787 197.839C166.564 197.839 165.261 196.488 165.261 194.388C165.261 192.288 166.564 190.937 167.787 190.937C169.011 190.937 170.314 192.288 170.314 194.388Z" stroke="url(#paint6_linear_278_3081)" stroke-width="1.60737"/>
<path d="M165.298 139.329C165.12 138.438 165.767 137.63 166.461 137.879L171.279 139.609C171.969 139.857 172.187 140.967 171.672 141.609L168.09 146.075C167.575 146.718 166.711 146.412 166.534 145.525L165.298 139.329Z" fill="url(#paint7_linear_278_3081)"/>
<path d="M79.6702 198.108C80.366 197.883 80.9884 198.699 80.7933 199.582L79.433 205.735C79.237 206.622 78.3634 206.91 77.8626 206.253L74.3715 201.671C73.8707 201.014 74.1196 199.906 74.8188 199.68L79.6702 198.108Z" fill="url(#paint8_linear_278_3081)"/>
<path d="M100.749 52.7484C100.749 54.8488 99.4454 56.1995 98.2221 56.1995C96.9987 56.1995 95.6953 54.8488 95.6953 52.7484C95.6953 50.648 96.9987 49.2973 98.2221 49.2973C99.4454 49.2973 100.749 50.648 100.749 52.7484Z" stroke="url(#paint9_linear_278_3081)" stroke-width="1.60737"/>
<rect x="137.284" y="203.503" width="27.1739" height="12.4976" rx="6.24878" fill="url(#paint10_linear_278_3081)"/>
<g filter="url(#filter4_f_278_3081)">
<ellipse cx="174.536" cy="101.524" rx="17.128" ry="8.20558" fill="#40DFF0" fill-opacity="0.6"/>
</g>
<path d="M207.364 73.3114C206.867 77.144 205.431 80.7851 203.187 83.8943C200.944 87.0035 197.968 89.4793 194.538 91.0902C191.107 92.701 187.333 93.3944 183.57 93.1055C179.807 92.8166 176.176 91.5549 173.018 89.4382L164.432 92.4339C164.171 92.5231 163.891 92.5336 163.625 92.4641C163.358 92.3946 163.117 92.248 162.93 92.0419C162.743 91.8357 162.618 91.5787 162.569 91.3016C162.521 91.0245 162.551 90.7389 162.657 90.4791L166.111 82.0345C164.284 78.9022 163.216 75.3674 162.995 71.7256C162.775 68.0838 163.408 64.4408 164.843 61.1011C166.278 57.7614 168.472 54.8221 171.242 52.5287C174.012 50.2353 177.278 48.6546 180.766 47.9186C184.255 47.1826 187.865 47.3128 191.294 48.2982C194.723 49.2836 197.873 51.0956 200.479 53.5828C203.085 56.07 205.072 59.1601 206.274 62.5948C207.476 66.0295 207.858 69.7091 207.388 73.326L207.364 73.3114Z" fill="url(#paint11_linear_278_3081)"/>
<path d="M184.025 79.6148C186.176 79.6148 187.679 78.1461 187.679 76.0967C187.679 74.0131 186.176 72.5444 184.025 72.5444C181.907 72.5444 180.37 74.0131 180.37 76.0967C180.37 78.1461 181.907 79.6148 184.025 79.6148ZM187.372 54.5438H180.677V61.2385L182.385 70.495H185.63L187.372 61.2385V54.5438Z" fill="white"/>
<path d="M57.5157 146.534C50.9126 142.841 50.8138 132.272 56.444 129.308L96.4237 110.244C102.208 106.905 111.136 104.705 117.709 106.76C119.542 107.333 121.362 108.023 123.271 108.231L189.87 115.481C191.502 115.659 193.197 116.035 194.285 117.265C198.299 121.804 197.373 132.147 191.562 135.501L127.838 172.969C121.224 176.788 110.5 176.788 103.886 172.969L57.5157 146.534Z" fill="#6666FF"/>
<g filter="url(#filter5_d_278_3081)">
<rect x="0.48921" width="101.718" height="76.7476" rx="12.8981" transform="matrix(0.866043 -0.49997 0.866043 0.49997 47.0675 133.647)" fill="url(#paint12_linear_278_3081)" stroke="url(#paint13_linear_278_3081)" stroke-width="0.564879"/>
</g>
<g filter="url(#filter6_d_278_3081)">
<g filter="url(#filter7_b_278_3081)">
<path d="M70.0245 133.23C66.2035 131.093 66.1463 124.977 69.4043 123.262L92.5389 112.23C96.3663 110.021 102.572 110.021 106.399 112.23L138.494 128.695C142.038 130.467 141.873 136.568 138.045 138.777L116.4 151.87C112.573 154.08 106.368 154.08 102.54 151.87L70.0245 133.23Z" fill="#D9C3EE" fill-opacity="0.5"/>
</g>
<g filter="url(#filter8_b_278_3081)">
<rect x="0.297004" width="41.658" height="52.5325" rx="7.83054" transform="matrix(0.866043 -0.49997 0.866043 0.49997 63.1345 126.001)" fill="#D9C3EE" fill-opacity="0.5" stroke="url(#paint14_linear_278_3081)" stroke-width="0.342943"/>
</g>
</g>
<g filter="url(#filter9_d_278_3081)">
<g filter="url(#filter10_b_278_3081)">
<path d="M117.567 108.327C113.746 106.19 113.689 100.074 116.947 98.3597L140.082 87.3281C143.909 85.1185 150.115 85.1185 153.942 87.3281L186.037 103.793C189.581 105.565 189.416 111.665 185.588 113.875L163.943 126.968C160.116 129.177 153.91 129.177 150.083 126.968L117.567 108.327Z" fill="#D9C3EE" fill-opacity="0.5"/>
</g>
<g filter="url(#filter11_b_278_3081)">
<rect x="0.297004" width="41.658" height="52.5325" rx="7.83054" transform="matrix(0.866043 -0.49997 0.866043 0.49997 110.677 101.098)" fill="#D9C3EE" fill-opacity="0.5" stroke="url(#paint15_linear_278_3081)" stroke-width="0.342943"/>
</g>
</g>
<g filter="url(#filter12_b_278_3081)">
<path d="M83.2498 112.49C78.1442 109.634 78.0679 101.463 82.4211 99.1714L113.333 84.4311C118.447 81.4787 126.739 81.4787 131.853 84.4311L174.738 106.431C179.473 108.799 179.253 116.95 174.138 119.903L145.217 137.397C140.103 140.349 131.811 140.349 126.697 137.397L83.2498 112.49Z" fill="white" fill-opacity="0.74"/>
</g>
<g filter="url(#filter13_b_278_3081)">
<rect x="0.396853" width="55.663" height="70.1935" rx="10.4631" transform="matrix(0.866043 -0.49997 0.866043 0.49997 74.0424 102.831)" fill="white" fill-opacity="0.74" stroke="url(#paint16_linear_278_3081)" stroke-width="0.458238"/>
</g>
<g filter="url(#filter14_i_278_3081)">
<path d="M97.9033 101.118L108.346 95.0896" stroke="#784BD9" stroke-width="4.4289" stroke-linecap="round" stroke-linejoin="round"/>
<path d="M110.555 108.421L120.997 102.393" stroke="#784BD9" stroke-width="4.4289" stroke-linecap="round" stroke-linejoin="round"/>
</g>
<g filter="url(#filter15_i_278_3081)">
<path d="M104.299 104.532L119.498 95.7577" stroke="#784BD9" stroke-width="4.4289" stroke-linecap="round" stroke-linejoin="round"/>
</g>
<g filter="url(#filter16_f_278_3081)">
<ellipse cx="50.2596" cy="157.174" rx="24.4911" ry="7.87213" fill="#FF4C77" fill-opacity="0.3"/>
</g>
<path d="M42.4601 164.631C45.7648 165.949 49.3495 166.409 52.8798 165.967C56.41 165.525 59.7709 164.196 62.6487 162.104C65.5266 160.012 67.8278 157.226 69.3375 154.004C70.8473 150.782 71.5164 147.231 71.2826 143.681L77.6681 137.961C77.8586 137.787 77.9952 137.563 78.062 137.314C78.1287 137.065 78.1227 136.802 78.0448 136.556C77.9668 136.31 77.8201 136.092 77.622 135.927C77.4239 135.762 77.1828 135.657 76.927 135.625L68.5644 134.653C66.9003 131.73 64.5602 129.248 61.74 127.415C58.9198 125.582 55.7015 124.451 52.3545 124.117C49.0075 123.783 45.6291 124.256 42.5023 125.495C39.3754 126.735 36.591 128.706 34.3821 131.242C32.1732 133.779 30.6041 136.808 29.8061 140.076C29.0081 143.343 29.0044 146.754 29.7954 150.024C30.5864 153.293 32.149 156.325 34.3524 158.867C36.5558 161.408 39.336 163.385 42.4601 164.631Z" fill="url(#paint17_linear_278_3081)"/>
<path d="M49.2267 157.866C51.5134 157.866 53.1423 156.299 53.1423 154.107C53.1423 151.914 51.5134 150.348 49.2267 150.348C46.9712 150.348 45.311 151.914 45.311 154.107C45.311 156.299 46.9712 157.866 49.2267 157.866ZM52.3592 149.721C52.3592 147.654 53.5495 146.902 55.1785 146.15C57.3399 145.148 58.9375 143.111 58.9375 140.605C58.9375 136.658 55.0531 133.902 49.7905 133.902C44.152 133.902 40.1737 137.066 39.8291 141.483L47.0339 142.798C47.2218 141.075 48.1303 139.854 49.4146 139.854C50.3857 139.854 51.1062 140.511 51.1062 141.42C51.1062 142.485 50.0411 143.143 49.1953 143.644C46.9399 145.116 46.0941 146.745 46.0941 149.721H52.3592Z" fill="white"/>
</g>
<defs>
<filter id="filter0_f_278_3081" x="29.6211" y="114.166" width="91.585" height="102.7" filterUnits="userSpaceOnUse" color-interpolation-filters="sRGB">
<feFlood flood-opacity="0" result="BackgroundImageFix"/>
<feBlend mode="normal" in="SourceGraphic" in2="BackgroundImageFix" result="shape"/>
<feGaussianBlur stdDeviation="2" result="effect1_foregroundBlur_278_3081"/>
</filter>
<filter id="filter1_f_278_3081" x="130.644" y="58.5519" width="139.87" height="133.962" filterUnits="userSpaceOnUse" color-interpolation-filters="sRGB">
<feFlood flood-opacity="0" result="BackgroundImageFix"/>
<feBlend mode="normal" in="SourceGraphic" in2="BackgroundImageFix" result="shape"/>
<feGaussianBlur stdDeviation="1.22406" result="effect1_foregroundBlur_278_3081"/>
</filter>
<filter id="filter2_f_278_3081" x="-15.074" y="1.92604" width="159.687" height="159.687" filterUnits="userSpaceOnUse" color-interpolation-filters="sRGB">
<feFlood flood-opacity="0" result="BackgroundImageFix"/>
<feBlend mode="normal" in="SourceGraphic" in2="BackgroundImageFix" result="shape"/>
<feGaussianBlur stdDeviation="6.53698" result="effect1_foregroundBlur_278_3081"/>
</filter>
<filter id="filter3_f_278_3081" x="73.3992" y="185.322" width="101.962" height="43.2007" filterUnits="userSpaceOnUse" color-interpolation-filters="sRGB">
<feFlood flood-opacity="0" result="BackgroundImageFix"/>
<feBlend mode="normal" in="SourceGraphic" in2="BackgroundImageFix" result="shape"/>
<feGaussianBlur stdDeviation="6.69738" result="effect1_foregroundBlur_278_3081"/>
</filter>
<filter id="filter4_f_278_3081" x="144.013" y="79.9241" width="61.0454" height="43.2007" filterUnits="userSpaceOnUse" color-interpolation-filters="sRGB">
<feFlood flood-opacity="0" result="BackgroundImageFix"/>
<feBlend mode="normal" in="SourceGraphic" in2="BackgroundImageFix" result="shape"/>
<feGaussianBlur stdDeviation="6.69738" result="effect1_foregroundBlur_278_3081"/>
</filter>
<filter id="filter5_d_278_3081" x="37.8844" y="86.1245" width="173.772" height="117.63" filterUnits="userSpaceOnUse" color-interpolation-filters="sRGB">
<feFlood flood-opacity="0" result="BackgroundImageFix"/>
<feColorMatrix in="SourceAlpha" type="matrix" values="0 0 0 0 0 0 0 0 0 0 0 0 0 0 0 0 0 0 127 0" result="hardAlpha"/>
<feOffset dy="19.7551"/>
<feGaussianBlur stdDeviation="7.90203"/>
<feComposite in2="hardAlpha" operator="out"/>
<feColorMatrix type="matrix" values="0 0 0 0 0.491698 0 0 0 0 0.263938 0 0 0 0 0.914681 0 0 0 0.5 0"/>
<feBlend mode="normal" in2="BackgroundImageFix" result="effect1_dropShadow_278_3081"/>
<feBlend mode="normal" in="SourceGraphic" in2="effect1_dropShadow_278_3081" result="shape"/>
</filter>
<filter id="filter6_d_278_3081" x="56.3169" y="104.242" width="95.6221" height="67.8047" filterUnits="userSpaceOnUse" color-interpolation-filters="sRGB">
<feFlood flood-opacity="0" result="BackgroundImageFix"/>
<feColorMatrix in="SourceAlpha" type="matrix" values="0 0 0 0 0 0 0 0 0 0 0 0 0 0 0 0 0 0 127 0" result="hardAlpha"/>
<feOffset dy="7.78221"/>
<feGaussianBlur stdDeviation="5.36841"/>
<feComposite in2="hardAlpha" operator="out"/>
<feColorMatrix type="matrix" values="0 0 0 0 0.498731 0 0 0 0 0.266435 0 0 0 0 1 0 0 0 0.43 0"/>
<feBlend mode="normal" in2="BackgroundImageFix" result="effect1_dropShadow_278_3081"/>
<feBlend mode="normal" in="SourceGraphic" in2="effect1_dropShadow_278_3081" result="shape"/>
</filter>
<filter id="filter7_b_278_3081" x="62.4811" y="106.001" width="83.1305" height="52.0993" filterUnits="userSpaceOnUse" color-interpolation-filters="sRGB">
<feFlood flood-opacity="0" result="BackgroundImageFix"/>
<feGaussianBlur in="BackgroundImageFix" stdDeviation="2.28629"/>
<feComposite in2="SourceAlpha" operator="in" result="effect1_backgroundBlur_278_3081"/>
<feBlend mode="normal" in="SourceGraphic" in2="effect1_backgroundBlur_278_3081" result="shape"/>
</filter>
<filter id="filter8_b_278_3081" x="62.5817" y="102.624" width="83.193" height="51.8937" filterUnits="userSpaceOnUse" color-interpolation-filters="sRGB">
<feFlood flood-opacity="0" result="BackgroundImageFix"/>
<feGaussianBlur in="BackgroundImageFix" stdDeviation="2.28629"/>
<feComposite in2="SourceAlpha" operator="in" result="effect1_backgroundBlur_278_3081"/>
<feBlend mode="normal" in="SourceGraphic" in2="effect1_backgroundBlur_278_3081" result="shape"/>
</filter>
<filter id="filter9_d_278_3081" x="103.86" y="79.3388" width="95.6211" height="67.8052" filterUnits="userSpaceOnUse" color-interpolation-filters="sRGB">
<feFlood flood-opacity="0" result="BackgroundImageFix"/>
<feColorMatrix in="SourceAlpha" type="matrix" values="0 0 0 0 0 0 0 0 0 0 0 0 0 0 0 0 0 0 127 0" result="hardAlpha"/>
<feOffset dy="7.78221"/>
<feGaussianBlur stdDeviation="5.36841"/>
<feComposite in2="hardAlpha" operator="out"/>
<feColorMatrix type="matrix" values="0 0 0 0 0.498731 0 0 0 0 0.266435 0 0 0 0 1 0 0 0 0.43 0"/>
<feBlend mode="normal" in2="BackgroundImageFix" result="effect1_dropShadow_278_3081"/>
<feBlend mode="normal" in="SourceGraphic" in2="effect1_dropShadow_278_3081" result="shape"/>
</filter>
<filter id="filter10_b_278_3081" x="110.024" y="81.0983" width="83.1305" height="52.0993" filterUnits="userSpaceOnUse" color-interpolation-filters="sRGB">
<feFlood flood-opacity="0" result="BackgroundImageFix"/>
<feGaussianBlur in="BackgroundImageFix" stdDeviation="2.28629"/>
<feComposite in2="SourceAlpha" operator="in" result="effect1_backgroundBlur_278_3081"/>
<feBlend mode="normal" in="SourceGraphic" in2="effect1_backgroundBlur_278_3081" result="shape"/>
</filter>
<filter id="filter11_b_278_3081" x="110.124" y="77.7209" width="83.193" height="51.8937" filterUnits="userSpaceOnUse" color-interpolation-filters="sRGB">
<feFlood flood-opacity="0" result="BackgroundImageFix"/>
<feGaussianBlur in="BackgroundImageFix" stdDeviation="2.28629"/>
<feComposite in2="SourceAlpha" operator="in" result="effect1_backgroundBlur_278_3081"/>
<feBlend mode="normal" in="SourceGraphic" in2="effect1_backgroundBlur_278_3081" result="shape"/>
</filter>
<filter id="filter12_b_278_3081" x="73.1704" y="76.107" width="111.077" height="69.6142" filterUnits="userSpaceOnUse" color-interpolation-filters="sRGB">
<feFlood flood-opacity="0" result="BackgroundImageFix"/>
<feGaussianBlur in="BackgroundImageFix" stdDeviation="3.05492"/>
<feComposite in2="SourceAlpha" operator="in" result="effect1_backgroundBlur_278_3081"/>
<feBlend mode="normal" in="SourceGraphic" in2="effect1_backgroundBlur_278_3081" result="shape"/>
</filter>
<filter id="filter13_b_278_3081" x="73.3042" y="71.5957" width="111.161" height="69.3393" filterUnits="userSpaceOnUse" color-interpolation-filters="sRGB">
<feFlood flood-opacity="0" result="BackgroundImageFix"/>
<feGaussianBlur in="BackgroundImageFix" stdDeviation="3.05492"/>
<feComposite in2="SourceAlpha" operator="in" result="effect1_backgroundBlur_278_3081"/>
<feBlend mode="normal" in="SourceGraphic" in2="effect1_backgroundBlur_278_3081" result="shape"/>
</filter>
<filter id="filter14_i_278_3081" x="95.1914" y="93.5239" width="28.5186" height="16.9993" filterUnits="userSpaceOnUse" color-interpolation-filters="sRGB">
<feFlood flood-opacity="0" result="BackgroundImageFix"/>
<feBlend mode="normal" in="SourceGraphic" in2="BackgroundImageFix" result="shape"/>
<feColorMatrix in="SourceAlpha" type="matrix" values="0 0 0 0 0 0 0 0 0 0 0 0 0 0 0 0 0 0 127 0" result="hardAlpha"/>
<feOffset dy="1.24582"/>
<feGaussianBlur stdDeviation="0.267952"/>
<feComposite in2="hardAlpha" operator="arithmetic" k2="-1" k3="1"/>
<feColorMatrix type="matrix" values="0 0 0 0 1 0 0 0 0 1 0 0 0 0 1 0 0 0 1 0"/>
<feBlend mode="normal" in2="shape" result="effect1_innerShadow_278_3081"/>
</filter>
<filter id="filter15_i_278_3081" x="101.587" y="94.1919" width="20.623" height="12.4422" filterUnits="userSpaceOnUse" color-interpolation-filters="sRGB">
<feFlood flood-opacity="0" result="BackgroundImageFix"/>
<feBlend mode="normal" in="SourceGraphic" in2="BackgroundImageFix" result="shape"/>
<feColorMatrix in="SourceAlpha" type="matrix" values="0 0 0 0 0 0 0 0 0 0 0 0 0 0 0 0 0 0 127 0" result="hardAlpha"/>
<feOffset dy="1.24582"/>
<feGaussianBlur stdDeviation="0.267952"/>
<feComposite in2="hardAlpha" operator="arithmetic" k2="-1" k3="1"/>
<feColorMatrix type="matrix" values="0 0 0 0 1 0 0 0 0 1 0 0 0 0 1 0 0 0 1 0"/>
<feBlend mode="normal" in2="shape" result="effect1_innerShadow_278_3081"/>
</filter>
<filter id="filter16_f_278_3081" x="11.1905" y="134.724" width="78.1385" height="44.9002" filterUnits="userSpaceOnUse" color-interpolation-filters="sRGB">
<feFlood flood-opacity="0" result="BackgroundImageFix"/>
<feBlend mode="normal" in="SourceGraphic" in2="BackgroundImageFix" result="shape"/>
<feGaussianBlur stdDeviation="7.28901" result="effect1_foregroundBlur_278_3081"/>
</filter>
<linearGradient id="paint0_linear_278_3081" x1="124.572" y1="28.2917" x2="126.031" y2="272.442" gradientUnits="userSpaceOnUse">
<stop stop-color="white" stop-opacity="0"/>
<stop offset="1" stop-color="#9DB3FF"/>
</linearGradient>
<linearGradient id="paint1_linear_278_3081" x1="71.4336" y1="93.1247" x2="42.4382" y2="65.3084" gradientUnits="userSpaceOnUse">
<stop stop-color="#5149F2"/>
<stop offset="1" stop-color="#F7F7FF"/>
</linearGradient>
<linearGradient id="paint2_linear_278_3081" x1="172.627" y1="160.205" x2="200.363" y2="178.433" gradientUnits="userSpaceOnUse">
<stop stop-color="#5149F2"/>
<stop offset="1" stop-color="#F7F7FF"/>
</linearGradient>
<linearGradient id="paint3_linear_278_3081" x1="55.1373" y1="147.439" x2="34.567" y2="116.748" gradientUnits="userSpaceOnUse">
<stop stop-color="#5149F2"/>
<stop offset="1" stop-color="#F7F7FF"/>
</linearGradient>
<linearGradient id="paint4_linear_278_3081" x1="154.05" y1="58.5665" x2="133.48" y2="27.8757" gradientUnits="userSpaceOnUse">
<stop stop-color="#5149F2"/>
<stop offset="1" stop-color="#F7F7FF"/>
</linearGradient>
<linearGradient id="paint5_linear_278_3081" x1="62.0266" y1="118.33" x2="56.0269" y2="109.378" gradientUnits="userSpaceOnUse">
<stop stop-color="#5149F2"/>
<stop offset="1" stop-color="#F7F7FF"/>
</linearGradient>
<linearGradient id="paint6_linear_278_3081" x1="170.14" y1="196.057" x2="164.14" y2="187.105" gradientUnits="userSpaceOnUse">
<stop stop-color="#5149F2"/>
<stop offset="1" stop-color="#F7F7FF"/>
</linearGradient>
<linearGradient id="paint7_linear_278_3081" x1="171.928" y1="140.375" x2="159.242" y2="137.146" gradientUnits="userSpaceOnUse">
<stop stop-color="#5149F2"/>
<stop offset="1" stop-color="#F7F7FF"/>
</linearGradient>
<linearGradient id="paint8_linear_278_3081" x1="78.8285" y1="206.581" x2="84.9637" y2="191.877" gradientUnits="userSpaceOnUse">
<stop stop-color="#5149F2"/>
<stop offset="1" stop-color="#F7F7FF"/>
</linearGradient>
<linearGradient id="paint9_linear_278_3081" x1="100.574" y1="54.4173" x2="94.5748" y2="45.4658" gradientUnits="userSpaceOnUse">
<stop stop-color="#5149F2"/>
<stop offset="1" stop-color="#F7F7FF"/>
</linearGradient>
<linearGradient id="paint10_linear_278_3081" x1="160.468" y1="212.203" x2="140.636" y2="196.734" gradientUnits="userSpaceOnUse">
<stop stop-color="#5149F2"/>
<stop offset="1" stop-color="#F7F7FF"/>
</linearGradient>
<linearGradient id="paint11_linear_278_3081" x1="162.564" y1="47.5582" x2="185.943" y2="92.7146" gradientUnits="userSpaceOnUse">
<stop stop-color="#49E2F2"/>
<stop offset="1" stop-color="#31D9EB"/>
</linearGradient>
<linearGradient id="paint12_linear_278_3081" x1="19.1812" y1="64.7096" x2="17.3872" y2="30.8118" gradientUnits="userSpaceOnUse">
<stop stop-color="#8E6CFF"/>
<stop offset="0.625" stop-color="#FF8DF4"/>
</linearGradient>
<linearGradient id="paint13_linear_278_3081" x1="8.86245" y1="31.4474" x2="42.0974" y2="72.6856" gradientUnits="userSpaceOnUse">
<stop stop-color="white" stop-opacity="0.43"/>
<stop offset="0.846595" stop-color="white" stop-opacity="0.44"/>
<stop offset="1" stop-color="white" stop-opacity="0"/>
</linearGradient>
<linearGradient id="paint14_linear_278_3081" x1="5.0693" y1="23.1638" x2="28.2918" y2="40.6197" gradientUnits="userSpaceOnUse">
<stop stop-color="white" stop-opacity="0.09"/>
<stop offset="0.846595" stop-color="white" stop-opacity="0.79"/>
<stop offset="1" stop-color="white" stop-opacity="0.17"/>
</linearGradient>
<linearGradient id="paint15_linear_278_3081" x1="5.0693" y1="23.1638" x2="28.2918" y2="40.6197" gradientUnits="userSpaceOnUse">
<stop stop-color="white" stop-opacity="0.09"/>
<stop offset="0.846595" stop-color="white" stop-opacity="0.79"/>
<stop offset="1" stop-color="white" stop-opacity="0.17"/>
</linearGradient>
<linearGradient id="paint16_linear_278_3081" x1="6.77355" y1="30.9513" x2="37.8033" y2="54.2756" gradientUnits="userSpaceOnUse">
<stop stop-color="white" stop-opacity="0.09"/>
<stop offset="0.846595" stop-color="white" stop-opacity="0.79"/>
<stop offset="1" stop-color="white" stop-opacity="0.17"/>
</linearGradient>
<linearGradient id="paint17_linear_278_3081" x1="24.1522" y1="154.307" x2="79.3957" y2="137.246" gradientUnits="userSpaceOnUse">
<stop stop-color="#FF698D"/>
<stop offset="1" stop-color="#FF3868"/>
</linearGradient>
<clipPath id="clip0_278_3081">
<rect width="252" height="252" fill="white"/>
</clipPath>
</defs>
</svg>
