<svg width="252" height="252" viewBox="0 0 252 252" fill="none" xmlns="http://www.w3.org/2000/svg">
<g clip-path="url(#clip0_278_3078)">
<g opacity="0.5" filter="url(#filter0_f_278_3078)">
<path d="M194.401 172.398C197.221 170.487 200.921 170.487 203.74 172.398L222.904 185.39C226.024 187.506 227.333 191.454 226.093 195.014L219.015 215.341C217.851 218.685 214.698 220.926 211.157 220.926H186.984C183.443 220.926 180.29 218.685 179.126 215.341L172.048 195.014C170.809 191.454 172.117 187.506 175.237 185.39L194.401 172.398Z" fill="#36DBEC"/>
</g>
<g opacity="0.5" filter="url(#filter1_f_278_3078)">
<path d="M224.998 49.5089C225.792 52.0978 224.681 54.9419 222.288 56.4467L208.057 65.3945C205.842 66.7871 203.015 66.7218 200.972 65.2307L187.107 55.1127C184.964 53.5484 184.168 50.7734 185.146 48.2701L190.93 33.4645C191.908 30.9612 194.43 29.3147 197.15 29.4045L214.74 29.9856C217.333 30.0712 219.541 31.7184 220.276 34.1143L224.998 49.5089Z" fill="#6FCFE4"/>
</g>
<g filter="url(#filter2_f_278_3078)">
<path d="M22.6051 47.235C23.7495 44.0017 26.9617 41.846 30.6107 41.8625L69.6028 42.0381C73.3712 42.055 76.7374 44.3822 77.8989 47.7734L89.6935 82.2101C90.832 85.5345 89.5915 89.1262 86.6148 91.1239L54.8341 112.452C51.8573 114.449 47.8136 114.404 44.7984 112.339L13.5642 90.9481C10.4884 88.8416 9.19517 85.1233 10.377 81.7843L22.6051 47.235Z" fill="#99E5F5"/>
</g>
<path d="M124.097 195.884C166.785 195.884 201.391 165.115 201.391 127.159C201.391 89.2029 166.785 58.4336 124.097 58.4336C81.4085 58.4336 46.8027 89.2029 46.8027 127.159C46.8027 165.115 81.4085 195.884 124.097 195.884Z" fill="url(#paint0_linear_278_3078)"/>
<path fill-rule="evenodd" clip-rule="evenodd" d="M137.616 166.174C138.724 163.511 142.05 162.152 145.044 163.137L176.502 173.487C180.8 174.901 184.438 177.383 186.741 180.492C189.043 183.599 190.2 187.675 188.521 191.709C186.843 195.742 182.981 198.167 178.959 199.195C174.935 200.223 170.354 200.004 166.055 198.589L91.3086 173.997C88.3143 173.012 86.7851 170.055 87.8931 167.392C89.0011 164.73 92.3268 163.37 95.3211 164.356L170.067 188.948C172.297 189.682 174.347 189.677 175.765 189.314C177.186 188.951 177.578 188.38 177.678 188.141C177.777 187.902 177.897 187.244 177.085 186.147C176.274 185.052 174.721 183.862 172.489 183.128L141.109 171.727C138.115 170.742 136.508 168.836 137.616 166.174Z" fill="url(#paint1_linear_278_3078)"/>
<path fill-rule="evenodd" clip-rule="evenodd" d="M175.176 98.6702C175.936 96.1421 178.513 94.3838 181.456 94.3838H207.751C211.342 94.3838 214.252 96.9718 214.252 100.164C214.252 103.357 211.342 105.945 207.751 105.945H186.446L178.861 131.153C177.933 134.237 174.369 136.068 170.901 135.243C167.432 134.418 165.373 131.249 166.301 128.165L175.176 98.6702Z" fill="url(#paint2_linear_278_3078)"/>
<path fill-rule="evenodd" clip-rule="evenodd" d="M196.401 54.4754C197.671 53.8312 199.499 54.5531 200.483 56.0877C200.5 56.1141 200.517 56.1406 200.533 56.1672C201.007 55.8835 201.715 55.791 202.435 55.9662C203.554 56.2383 204.278 57.0535 204.053 57.7869C203.827 58.5203 202.737 58.8943 201.618 58.6222C201.421 58.5741 201.235 58.5092 201.065 58.4308C200.964 59.1286 200.591 59.7161 199.967 60.0327C198.697 60.6768 196.869 59.9549 195.885 58.4203C194.9 56.8857 195.131 55.1195 196.401 54.4754Z" fill="url(#paint3_linear_278_3078)"/>
<path fill-rule="evenodd" clip-rule="evenodd" d="M95.0141 46.2139C94.71 47.9599 93.2922 49.2139 91.8475 49.015C90.997 48.8979 90.3267 48.3033 89.9813 47.4779C89.8249 47.6657 89.6278 47.8415 89.3942 47.9935C88.458 48.6026 87.2896 48.599 86.7846 47.9854C86.2795 47.3718 86.6291 46.3805 87.5653 45.7714C88.3082 45.288 89.1972 45.1904 89.785 45.4773C90.0951 43.7398 91.5085 42.4941 92.9488 42.6924C94.3936 42.8913 95.3182 44.468 95.0141 46.2139Z" fill="url(#paint4_linear_278_3078)"/>
<path d="M35.5445 126.359C35.8387 125.009 37.7629 125.009 38.0572 126.359L39.0658 130.983C39.1684 131.453 39.5251 131.827 39.9902 131.951L44.6575 133.198C45.9295 133.538 45.9295 135.343 44.6575 135.683L39.9902 136.929C39.5251 137.054 39.1684 137.427 39.0658 137.898L38.0572 142.522C37.7629 143.871 35.8387 143.871 35.5445 142.522L34.5359 137.898C34.4333 137.427 34.0765 137.054 33.6114 136.929L28.9441 135.683C27.6721 135.343 27.6721 133.538 28.9441 133.198L33.6114 131.951C34.0765 131.827 34.4333 131.453 34.5359 130.983L35.5445 126.359Z" fill="url(#paint5_linear_278_3078)"/>
<path d="M167.696 173.793C167.99 172.444 169.914 172.444 170.209 173.793L171.217 178.417C171.32 178.888 171.676 179.261 172.142 179.386L176.809 180.632C178.081 180.972 178.081 182.777 176.809 183.117L172.142 184.364C171.676 184.488 171.32 184.862 171.217 185.332L170.209 189.956C169.914 191.306 167.99 191.306 167.696 189.956L166.687 185.332C166.585 184.862 166.228 184.488 165.763 184.364L161.096 183.117C159.824 182.777 159.824 180.972 161.096 180.632L165.763 179.386C166.228 179.261 166.585 178.888 166.687 178.417L167.696 173.793Z" fill="url(#paint6_linear_278_3078)"/>
<path fill-rule="evenodd" clip-rule="evenodd" d="M53.8357 92.2622C55.2687 92.2622 56.4304 90.9765 56.4304 89.3906C56.4304 87.8046 55.2687 86.5189 53.8357 86.5189C52.4027 86.5189 51.241 87.8046 51.241 89.3906C51.241 90.9765 52.4027 92.2622 53.8357 92.2622ZM53.8357 94.4159C56.3435 94.4159 58.3764 92.166 58.3764 89.3906C58.3764 86.6152 56.3435 84.3652 53.8357 84.3652C51.3279 84.3652 49.2949 86.6152 49.2949 89.3906C49.2949 92.166 51.3279 94.4159 53.8357 94.4159Z" fill="url(#paint7_linear_278_3078)"/>
<path d="M43.3417 166.046C43.1484 165.207 43.85 164.449 44.6034 164.683L49.9046 166.332C50.6566 166.566 50.8963 167.613 50.3363 168.218L46.3955 172.475C45.8355 173.08 44.8952 172.789 44.7022 171.951L43.3417 166.046Z" fill="url(#paint8_linear_278_3078)"/>
<path d="M178.347 146.292C179.104 146.079 179.784 146.852 179.572 147.685L178.075 153.549C177.862 154.384 176.914 154.652 176.368 154.032L172.527 149.665C171.982 149.045 172.25 148.003 173.009 147.79L178.347 146.292Z" fill="url(#paint9_linear_278_3078)"/>
<path fill-rule="evenodd" clip-rule="evenodd" d="M161.283 86.098C162.434 86.098 163.367 85.0651 163.367 83.791C163.367 82.517 162.434 81.4841 161.283 81.4841C160.131 81.4841 159.198 82.517 159.198 83.791C159.198 85.0651 160.131 86.098 161.283 86.098ZM161.283 87.8282C163.297 87.8282 164.93 86.0207 164.93 83.791C164.93 81.5614 163.297 79.7539 161.283 79.7539C159.268 79.7539 157.635 81.5614 157.635 83.791C157.635 86.0207 159.268 87.8282 161.283 87.8282Z" fill="url(#paint10_linear_278_3078)"/>
<path d="M79.7257 53.4717C78.7011 58.0077 82.0201 67.5387 87.1432 68.2947C96.6227 69.6935 94.8818 57.4245 89.2267 59.7303C82.4964 62.4745 89.2316 74.213 98.4534 76.859" stroke="#5EC0D6" stroke-width="0.61203" stroke-linecap="round" stroke-linejoin="round" stroke-dasharray="2.45 2.45"/>
<path d="M177.061 71.2773C182.695 83.4127 167.768 96.3686 163.635 98.7689" stroke="#5EC0D6" stroke-width="0.61203" stroke-linecap="round" stroke-linejoin="round" stroke-dasharray="2.45 2.45"/>
<path d="M107.383 210.503C115.161 210.503 121.467 204.896 121.467 197.98C121.467 191.064 115.161 185.458 107.383 185.458C99.6044 185.458 93.2988 191.064 93.2988 197.98C93.2988 204.896 99.6044 210.503 107.383 210.503Z" fill="#6FCFE4"/>
<path d="M119.917 198.04C123.824 198.04 126.992 195.223 126.992 191.749C126.992 188.274 123.824 185.458 119.917 185.458C116.009 185.458 112.841 188.274 112.841 191.749C112.841 195.223 116.009 198.04 119.917 198.04Z" fill="url(#paint11_linear_278_3078)"/>
<path d="M57.2161 149.85C51.4279 146.613 51.3413 137.348 56.2766 134.751L91.3222 118.04C96.3722 115.124 104.155 114.748 109.91 116.912C111.552 117.529 113.223 118.122 114.97 118.282L178.057 124.05C179.56 124.187 181.122 124.516 182.151 125.62C185.54 129.259 184.691 136.621 179.652 139.53L119.697 173.5C113.899 176.847 104.498 176.847 98.7005 173.5L57.2161 149.85Z" fill="#71A8EF"/>
<g filter="url(#filter3_d_278_3078)">
<rect x="0.449917" width="93.5478" height="70.5834" rx="11.8621" transform="matrix(0.866043 -0.49997 0.866043 0.49997 46.7771 139.082)" fill="url(#paint12_linear_278_3078)" stroke="url(#paint13_linear_278_3078)" stroke-width="0.519509"/>
</g>
<g filter="url(#filter4_d_278_3078)">
<path d="M58.9971 124.402L111.279 94.2195C117.437 90.665 127.419 90.665 133.576 94.2195L176.899 119.229L117.927 153.273C115.464 154.695 111.471 154.695 109.009 153.273L58.9971 124.402Z" fill="#5ECDCD"/>
</g>
<g filter="url(#filter5_b_278_3078)">
<path d="M58.9254 126.028C54.6227 123.622 54.5583 116.735 58.2271 114.804L117.853 79.6586C122.163 77.1704 129.151 77.1704 133.461 79.6586L182.49 107.613C186.481 109.608 186.8 117.901 182.49 120.389L122.419 155.607C118.109 158.096 110.616 156.673 106.306 154.185L58.9254 126.028Z" fill="white" fill-opacity="0.5"/>
</g>
<g filter="url(#filter6_b_278_3078)">
<rect x="0.334455" width="85.0242" height="73.3549" rx="8.81796" transform="matrix(0.866043 -0.49997 0.866043 0.49997 51.9911 117.778)" fill="white" fill-opacity="0.5" stroke="url(#paint14_linear_278_3078)" stroke-width="0.386188"/>
</g>
<g filter="url(#filter7_b_278_3078)">
<path d="M59.3029 104.778C57.239 103.623 57.2081 99.7002 58.9679 98.7739L61.0583 97.7771C63.1257 96.5836 66.4776 96.9538 68.545 98.1473L80.2176 105.211C82.1318 106.168 82.285 109.551 80.2176 110.745L78.9001 111.468C76.8328 112.662 73.2385 112.823 71.1711 111.629L59.3029 104.778Z" fill="#8CDBFF" fill-opacity="0.46"/>
</g>
<g filter="url(#filter8_b_278_3078)">
<rect x="0.160429" width="9.56259" height="22.5019" rx="4.22973" transform="matrix(0.866043 -0.49997 0.866043 0.49997 55.5811 100.549)" fill="#8CDBFF" stroke="url(#paint15_linear_278_3078)" stroke-width="0.185244"/>
</g>
<g filter="url(#filter9_b_278_3078)">
<path d="M105.214 80.0917C103.15 78.9374 103.119 75.0141 104.879 74.0879L106.969 73.0911C109.037 71.8976 112.389 72.2678 114.456 73.4613L126.129 80.5245C128.043 81.4816 128.196 84.8654 126.129 86.0589L124.811 86.7822C122.744 87.9758 119.15 88.1368 117.082 86.9433L105.214 80.0917Z" fill="#8CDBFF" fill-opacity="0.46"/>
</g>
<g filter="url(#filter10_b_278_3078)">
<rect x="0.160429" width="9.56259" height="22.5019" rx="4.22973" transform="matrix(0.866043 -0.49997 0.866043 0.49997 101.491 75.8629)" fill="#8CDBFF" stroke="url(#paint16_linear_278_3078)" stroke-width="0.185244"/>
</g>
<g filter="url(#filter11_i_278_3078)">
<path d="M101.702 137.482L115.225 130.309" stroke="#8EE2F4" stroke-width="5.30635" stroke-linecap="round" stroke-linejoin="round"/>
</g>
<g filter="url(#filter12_i_278_3078)">
<path d="M80.9688 122.948L94.4917 115.775" stroke="#8CDBFF" stroke-width="5.30635" stroke-linecap="round" stroke-linejoin="round"/>
<path d="M90.9307 130.891L104.454 123.718" stroke="#8CDBFF" stroke-width="5.30635" stroke-linecap="round" stroke-linejoin="round"/>
</g>
<g filter="url(#filter13_f_278_3078)">
<path d="M158.097 105.385L168.498 98.7966C177.452 100.523 183.35 108.878 185.219 113.014C184.157 113.434 180.369 116.584 178.642 117.937C176.915 119.289 173.604 118.713 172.165 118.257C169.002 116.352 162.061 112.245 159.6 111.053C157.138 109.861 157.572 106.778 158.097 105.385Z" fill="#8ECDF4"/>
</g>
<g filter="url(#filter14_f_278_3078)">
<path d="M136.224 90.84L145.873 85.8837C155.383 87.6178 161.735 96.3249 163.723 100.462C162.596 100.882 159.883 102.059 158.051 103.41C156.218 104.76 152.702 104.182 151.174 103.724C147.813 101.817 140.439 97.7033 137.824 96.509C135.21 95.3147 135.668 92.232 136.224 90.84Z" fill="#8ECDF4"/>
</g>
<g filter="url(#filter15_d_278_3078)">
<g filter="url(#filter16_b_278_3078)">
<path d="M113.324 105.996C111.277 104.812 111.294 101.509 113.067 100.608L125.647 94.8293C127.732 93.6656 131.083 93.7138 133.133 94.9369L145.451 101.012C147.351 101.996 147.215 105.29 145.13 106.454L132.869 113.299C130.785 114.462 127.433 114.414 125.383 113.191L113.324 105.996Z" fill="white" fill-opacity="0.5"/>
</g>
<g filter="url(#filter17_b_278_3078)">
<rect x="0.160412" y="0.00230659" width="22.5019" height="22.5019" rx="4.22973" transform="matrix(0.873142 -0.487466 0.858765 0.51237 109.658 102.036)" fill="white" fill-opacity="0.5" stroke="url(#paint17_linear_278_3078)" stroke-width="0.185244"/>
</g>
</g>
<g filter="url(#filter18_b_278_3078)">
<path d="M135.233 93.2105C133.186 92.0266 133.203 88.723 134.976 87.8222L147.556 82.0436C149.641 80.88 152.992 80.9282 155.042 82.1513L167.36 88.2261C169.26 89.2106 169.124 92.5042 167.039 93.6679L154.778 100.513C152.694 101.677 149.342 101.629 147.292 100.405L135.233 93.2105Z" fill="white" fill-opacity="0.5"/>
</g>
<g filter="url(#filter19_b_278_3078)">
<rect x="0.160412" y="0.00230659" width="22.5019" height="22.5019" rx="4.22973" transform="matrix(0.873142 -0.487466 0.858765 0.51237 131.565 89.2512)" fill="white" fill-opacity="0.5" stroke="url(#paint18_linear_278_3078)" stroke-width="0.185244"/>
</g>
<g filter="url(#filter20_d_278_3078)">
<g filter="url(#filter21_b_278_3078)">
<path d="M136.348 119.428C134.3 118.244 134.317 114.941 136.09 114.04L148.671 108.261C150.755 107.098 154.107 107.146 156.157 108.369L168.474 114.444C170.374 115.428 170.238 118.722 168.154 119.886L155.893 126.731C153.808 127.895 150.457 127.846 148.407 126.623L136.348 119.428Z" fill="white" fill-opacity="0.5"/>
</g>
<g filter="url(#filter22_b_278_3078)">
<rect x="0.160412" y="0.00230659" width="22.5019" height="22.5019" rx="4.22973" transform="matrix(0.873142 -0.487466 0.858765 0.51237 132.68 115.469)" fill="white" fill-opacity="0.5" stroke="url(#paint19_linear_278_3078)" stroke-width="0.185244"/>
</g>
</g>
<g filter="url(#filter23_b_278_3078)">
<path d="M158.257 106.642C156.21 105.458 156.226 102.155 157.999 101.254L170.58 95.4753C172.664 94.3116 176.016 94.3598 178.066 95.5829L190.383 101.658C192.284 102.642 192.147 105.936 190.063 107.099L177.802 113.945C175.717 115.108 172.366 115.06 170.316 113.837L158.257 106.642Z" fill="white" fill-opacity="0.5"/>
</g>
<g filter="url(#filter24_b_278_3078)">
<rect x="0.160412" y="0.00230659" width="22.5019" height="22.5019" rx="4.22973" transform="matrix(0.873142 -0.487466 0.858765 0.51237 154.59 102.683)" fill="white" fill-opacity="0.5" stroke="url(#paint20_linear_278_3078)" stroke-width="0.185244"/>
</g>
<g filter="url(#filter25_i_278_3078)">
<path d="M170.122 104.824L178.383 100.055" stroke="#8ECDF4" stroke-width="2.40715" stroke-linecap="round" stroke-linejoin="round"/>
<path d="M178.405 104.8L170.155 100.038" stroke="#8ECDF4" stroke-width="2.40715" stroke-linecap="round" stroke-linejoin="round"/>
</g>
<g filter="url(#filter26_i_278_3078)">
<path d="M151.172 93.7444L151.184 84.2129" stroke="#8ECDF4" stroke-width="2.40715" stroke-linecap="round" stroke-linejoin="round"/>
<path d="M159.433 88.9754L142.923 88.9819" stroke="#8ECDF4" stroke-width="2.40715" stroke-linecap="round" stroke-linejoin="round"/>
</g>
<g filter="url(#filter27_i_278_3078)">
<path d="M148.92 116.745L157.181 111.976" stroke="#8CDBFF" stroke-width="2.40715" stroke-linecap="round" stroke-linejoin="round"/>
</g>
<g filter="url(#filter28_d_278_3078)">
<g filter="url(#filter29_b_278_3078)">
<path d="M89.1014 119.434C87.0543 118.25 87.0709 114.946 88.8439 114.045L101.425 108.267C103.509 107.103 106.861 107.151 108.911 108.374L121.228 114.449C123.128 115.434 122.992 118.727 120.908 119.891L108.646 126.736C106.562 127.9 103.211 127.852 101.161 126.629L89.1014 119.434Z" fill="white" fill-opacity="0.5"/>
</g>
<g filter="url(#filter30_b_278_3078)">
<rect x="0.160412" y="0.00230659" width="22.5019" height="22.5019" rx="4.22973" transform="matrix(0.873142 -0.487466 0.858765 0.51237 85.4344 115.475)" fill="white" fill-opacity="0.5" stroke="url(#paint21_linear_278_3078)" stroke-width="0.185244"/>
</g>
</g>
<g filter="url(#filter31_d_278_3078)">
<g filter="url(#filter32_b_278_3078)">
<path d="M112.125 132.867C110.078 131.683 110.094 128.379 111.867 127.478L124.448 121.7C126.532 120.536 129.884 120.584 131.934 121.808L144.252 127.882C146.152 128.867 146.015 132.16 143.931 133.324L131.67 140.169C129.586 141.333 126.234 141.285 124.184 140.062L112.125 132.867Z" fill="white" fill-opacity="0.5"/>
</g>
<g filter="url(#filter33_b_278_3078)">
<rect x="0.160412" y="0.00230659" width="22.5019" height="22.5019" rx="4.22973" transform="matrix(0.873142 -0.487466 0.858765 0.51237 108.457 128.907)" fill="white" fill-opacity="0.5" stroke="url(#paint22_linear_278_3078)" stroke-width="0.185244"/>
</g>
</g>
</g>
<defs>
<filter id="filter0_f_278_3078" x="165.999" y="166.784" width="66.1433" height="62.0471" filterUnits="userSpaceOnUse" color-interpolation-filters="sRGB">
<feFlood flood-opacity="0" result="BackgroundImageFix"/>
<feBlend mode="normal" in="SourceGraphic" in2="BackgroundImageFix" result="shape"/>
<feGaussianBlur stdDeviation="1.22406" result="effect1_foregroundBlur_278_3078"/>
</filter>
<filter id="filter1_f_278_3078" x="175.115" y="18.5722" width="60.1086" height="56.2438" filterUnits="userSpaceOnUse" color-interpolation-filters="sRGB">
<feFlood flood-opacity="0" result="BackgroundImageFix"/>
<feBlend mode="normal" in="SourceGraphic" in2="BackgroundImageFix" result="shape"/>
<feGaussianBlur stdDeviation="0.580363" result="effect1_foregroundBlur_278_3078"/>
</filter>
<filter id="filter2_f_278_3078" x="-14.3284" y="14.6716" width="128.776" height="120.609" filterUnits="userSpaceOnUse" color-interpolation-filters="sRGB">
<feFlood flood-opacity="0" result="BackgroundImageFix"/>
<feBlend mode="normal" in="SourceGraphic" in2="BackgroundImageFix" result="shape"/>
<feGaussianBlur stdDeviation="1.66422" result="effect1_foregroundBlur_278_3078"/>
</filter>
<filter id="filter3_d_278_3078" x="39.0126" y="95.377" width="158.452" height="106.65" filterUnits="userSpaceOnUse" color-interpolation-filters="sRGB">
<feFlood flood-opacity="0" result="BackgroundImageFix"/>
<feColorMatrix in="SourceAlpha" type="matrix" values="0 0 0 0 0 0 0 0 0 0 0 0 0 0 0 0 0 0 127 0" result="hardAlpha"/>
<feOffset dy="17.317"/>
<feGaussianBlur stdDeviation="6.92679"/>
<feComposite in2="hardAlpha" operator="out"/>
<feColorMatrix type="matrix" values="0 0 0 0 0.496875 0 0 0 0 0.816765 0 0 0 0 0.965007 0 0 0 0.5 0"/>
<feBlend mode="normal" in2="BackgroundImageFix" result="effect1_dropShadow_278_3078"/>
<feBlend mode="normal" in="SourceGraphic" in2="effect1_dropShadow_278_3078" result="shape"/>
</filter>
<filter id="filter4_d_278_3078" x="53.333" y="90.2664" width="129.23" height="74.1143" filterUnits="userSpaceOnUse" color-interpolation-filters="sRGB">
<feFlood flood-opacity="0" result="BackgroundImageFix"/>
<feColorMatrix in="SourceAlpha" type="matrix" values="0 0 0 0 0 0 0 0 0 0 0 0 0 0 0 0 0 0 127 0" result="hardAlpha"/>
<feOffset dy="4.3768"/>
<feGaussianBlur stdDeviation="2.83205"/>
<feComposite in2="hardAlpha" operator="out"/>
<feColorMatrix type="matrix" values="0 0 0 0 0.556863 0 0 0 0 0.896863 0 0 0 0 0.956863 0 0 0 1 0"/>
<feBlend mode="normal" in2="BackgroundImageFix" result="effect1_dropShadow_278_3078"/>
<feBlend mode="normal" in="SourceGraphic" in2="effect1_dropShadow_278_3078" result="shape"/>
</filter>
<filter id="filter5_b_278_3078" x="50.4309" y="72.6433" width="140.323" height="89.4131" filterUnits="userSpaceOnUse" color-interpolation-filters="sRGB">
<feFlood flood-opacity="0" result="BackgroundImageFix"/>
<feGaussianBlur in="BackgroundImageFix" stdDeviation="2.57459"/>
<feComposite in2="SourceAlpha" operator="in" result="effect1_backgroundBlur_278_3078"/>
<feBlend mode="normal" in="SourceGraphic" in2="effect1_backgroundBlur_278_3078" result="shape"/>
</filter>
<filter id="filter6_b_278_3078" x="51.3684" y="72.3982" width="138.988" height="84.5908" filterUnits="userSpaceOnUse" color-interpolation-filters="sRGB">
<feFlood flood-opacity="0" result="BackgroundImageFix"/>
<feGaussianBlur in="BackgroundImageFix" stdDeviation="2.57459"/>
<feComposite in2="SourceAlpha" operator="in" result="effect1_backgroundBlur_278_3078"/>
<feBlend mode="normal" in="SourceGraphic" in2="effect1_backgroundBlur_278_3078" result="shape"/>
</filter>
<filter id="filter7_b_278_3078" x="55.2283" y="94.576" width="28.9525" height="20.3417" filterUnits="userSpaceOnUse" color-interpolation-filters="sRGB">
<feFlood flood-opacity="0" result="BackgroundImageFix"/>
<feGaussianBlur in="BackgroundImageFix" stdDeviation="1.23496"/>
<feComposite in2="SourceAlpha" operator="in" result="effect1_backgroundBlur_278_3078"/>
<feBlend mode="normal" in="SourceGraphic" in2="effect1_backgroundBlur_278_3078" result="shape"/>
</filter>
<filter id="filter8_b_278_3078" x="55.282" y="94.3909" width="28.6449" height="18.6249" filterUnits="userSpaceOnUse" color-interpolation-filters="sRGB">
<feFlood flood-opacity="0" result="BackgroundImageFix"/>
<feGaussianBlur in="BackgroundImageFix" stdDeviation="1.23496"/>
<feComposite in2="SourceAlpha" operator="in" result="effect1_backgroundBlur_278_3078"/>
<feBlend mode="normal" in="SourceGraphic" in2="effect1_backgroundBlur_278_3078" result="shape"/>
</filter>
<filter id="filter9_b_278_3078" x="101.139" y="69.8899" width="28.9525" height="20.3417" filterUnits="userSpaceOnUse" color-interpolation-filters="sRGB">
<feFlood flood-opacity="0" result="BackgroundImageFix"/>
<feGaussianBlur in="BackgroundImageFix" stdDeviation="1.23496"/>
<feComposite in2="SourceAlpha" operator="in" result="effect1_backgroundBlur_278_3078"/>
<feBlend mode="normal" in="SourceGraphic" in2="effect1_backgroundBlur_278_3078" result="shape"/>
</filter>
<filter id="filter10_b_278_3078" x="101.192" y="69.7049" width="28.6449" height="18.6249" filterUnits="userSpaceOnUse" color-interpolation-filters="sRGB">
<feFlood flood-opacity="0" result="BackgroundImageFix"/>
<feGaussianBlur in="BackgroundImageFix" stdDeviation="1.23496"/>
<feComposite in2="SourceAlpha" operator="in" result="effect1_backgroundBlur_278_3078"/>
<feBlend mode="normal" in="SourceGraphic" in2="effect1_backgroundBlur_278_3078" result="shape"/>
</filter>
<filter id="filter11_i_278_3078" x="98.5723" y="128.24" width="19.7832" height="11.6028" filterUnits="userSpaceOnUse" color-interpolation-filters="sRGB">
<feFlood flood-opacity="0" result="BackgroundImageFix"/>
<feBlend mode="normal" in="SourceGraphic" in2="BackgroundImageFix" result="shape"/>
<feColorMatrix in="SourceAlpha" type="matrix" values="0 0 0 0 0 0 0 0 0 0 0 0 0 0 0 0 0 0 127 0" result="hardAlpha"/>
<feOffset dy="0.677116"/>
<feGaussianBlur stdDeviation="0.145634"/>
<feComposite in2="hardAlpha" operator="arithmetic" k2="-1" k3="1"/>
<feColorMatrix type="matrix" values="0 0 0 0 1 0 0 0 0 1 0 0 0 0 1 0 0 0 1 0"/>
<feBlend mode="normal" in2="shape" result="effect1_innerShadow_278_3078"/>
</filter>
<filter id="filter12_i_278_3078" x="77.8389" y="113.706" width="29.7451" height="19.5457" filterUnits="userSpaceOnUse" color-interpolation-filters="sRGB">
<feFlood flood-opacity="0" result="BackgroundImageFix"/>
<feBlend mode="normal" in="SourceGraphic" in2="BackgroundImageFix" result="shape"/>
<feColorMatrix in="SourceAlpha" type="matrix" values="0 0 0 0 0 0 0 0 0 0 0 0 0 0 0 0 0 0 127 0" result="hardAlpha"/>
<feOffset dy="0.677116"/>
<feGaussianBlur stdDeviation="0.145634"/>
<feComposite in2="hardAlpha" operator="arithmetic" k2="-1" k3="1"/>
<feColorMatrix type="matrix" values="0 0 0 0 1 0 0 0 0 1 0 0 0 0 1 0 0 0 1 0"/>
<feBlend mode="normal" in2="shape" result="effect1_innerShadow_278_3078"/>
</filter>
<filter id="filter13_f_278_3078" x="154.386" y="95.4918" width="34.1375" height="26.5911" filterUnits="userSpaceOnUse" color-interpolation-filters="sRGB">
<feFlood flood-opacity="0" result="BackgroundImageFix"/>
<feBlend mode="normal" in="SourceGraphic" in2="BackgroundImageFix" result="shape"/>
<feGaussianBlur stdDeviation="1.6523" result="effect1_foregroundBlur_278_3078"/>
</filter>
<filter id="filter14_f_278_3078" x="132.489" y="82.5792" width="34.5379" height="24.974" filterUnits="userSpaceOnUse" color-interpolation-filters="sRGB">
<feFlood flood-opacity="0" result="BackgroundImageFix"/>
<feBlend mode="normal" in="SourceGraphic" in2="BackgroundImageFix" result="shape"/>
<feGaussianBlur stdDeviation="1.6523" result="effect1_foregroundBlur_278_3078"/>
</filter>
<filter id="filter15_d_278_3078" x="105.962" y="91.6357" width="46.6275" height="33.5777" filterUnits="userSpaceOnUse" color-interpolation-filters="sRGB">
<feFlood flood-opacity="0" result="BackgroundImageFix"/>
<feColorMatrix in="SourceAlpha" type="matrix" values="0 0 0 0 0 0 0 0 0 0 0 0 0 0 0 0 0 0 127 0" result="hardAlpha"/>
<feOffset dy="5.27273"/>
<feGaussianBlur stdDeviation="2.89979"/>
<feComposite in2="hardAlpha" operator="out"/>
<feColorMatrix type="matrix" values="0 0 0 0 0.556863 0 0 0 0 0.896863 0 0 0 0 0.956863 0 0 0 1 0"/>
<feBlend mode="normal" in2="BackgroundImageFix" result="effect1_dropShadow_278_3078"/>
<feBlend mode="normal" in="SourceGraphic" in2="effect1_dropShadow_278_3078" result="shape"/>
</filter>
<filter id="filter16_b_278_3078" x="109.292" y="91.5174" width="39.9682" height="25.0936" filterUnits="userSpaceOnUse" color-interpolation-filters="sRGB">
<feFlood flood-opacity="0" result="BackgroundImageFix"/>
<feGaussianBlur in="BackgroundImageFix" stdDeviation="1.23496"/>
<feComposite in2="SourceAlpha" operator="in" result="effect1_backgroundBlur_278_3078"/>
<feBlend mode="normal" in="SourceGraphic" in2="effect1_backgroundBlur_278_3078" result="shape"/>
</filter>
<filter id="filter17_b_278_3078" x="109.362" y="89.6927" width="39.8471" height="25.0936" filterUnits="userSpaceOnUse" color-interpolation-filters="sRGB">
<feFlood flood-opacity="0" result="BackgroundImageFix"/>
<feGaussianBlur in="BackgroundImageFix" stdDeviation="1.23496"/>
<feComposite in2="SourceAlpha" operator="in" result="effect1_backgroundBlur_278_3078"/>
<feBlend mode="normal" in="SourceGraphic" in2="effect1_backgroundBlur_278_3078" result="shape"/>
</filter>
<filter id="filter18_b_278_3078" x="131.201" y="78.7317" width="39.9682" height="25.0936" filterUnits="userSpaceOnUse" color-interpolation-filters="sRGB">
<feFlood flood-opacity="0" result="BackgroundImageFix"/>
<feGaussianBlur in="BackgroundImageFix" stdDeviation="1.23496"/>
<feComposite in2="SourceAlpha" operator="in" result="effect1_backgroundBlur_278_3078"/>
<feBlend mode="normal" in="SourceGraphic" in2="effect1_backgroundBlur_278_3078" result="shape"/>
</filter>
<filter id="filter19_b_278_3078" x="131.269" y="76.9075" width="39.8471" height="25.0936" filterUnits="userSpaceOnUse" color-interpolation-filters="sRGB">
<feFlood flood-opacity="0" result="BackgroundImageFix"/>
<feGaussianBlur in="BackgroundImageFix" stdDeviation="1.23496"/>
<feComposite in2="SourceAlpha" operator="in" result="effect1_backgroundBlur_278_3078"/>
<feBlend mode="normal" in="SourceGraphic" in2="effect1_backgroundBlur_278_3078" result="shape"/>
</filter>
<filter id="filter20_d_278_3078" x="128.986" y="105.068" width="46.6275" height="33.5772" filterUnits="userSpaceOnUse" color-interpolation-filters="sRGB">
<feFlood flood-opacity="0" result="BackgroundImageFix"/>
<feColorMatrix in="SourceAlpha" type="matrix" values="0 0 0 0 0 0 0 0 0 0 0 0 0 0 0 0 0 0 127 0" result="hardAlpha"/>
<feOffset dy="5.27273"/>
<feGaussianBlur stdDeviation="2.89979"/>
<feComposite in2="hardAlpha" operator="out"/>
<feColorMatrix type="matrix" values="0 0 0 0 0.556863 0 0 0 0 0.943529 0 0 0 0 0.956863 0 0 0 1 0"/>
<feBlend mode="normal" in2="BackgroundImageFix" result="effect1_dropShadow_278_3078"/>
<feBlend mode="normal" in="SourceGraphic" in2="effect1_dropShadow_278_3078" result="shape"/>
</filter>
<filter id="filter21_b_278_3078" x="132.315" y="104.95" width="39.9682" height="25.0936" filterUnits="userSpaceOnUse" color-interpolation-filters="sRGB">
<feFlood flood-opacity="0" result="BackgroundImageFix"/>
<feGaussianBlur in="BackgroundImageFix" stdDeviation="1.23496"/>
<feComposite in2="SourceAlpha" operator="in" result="effect1_backgroundBlur_278_3078"/>
<feBlend mode="normal" in="SourceGraphic" in2="effect1_backgroundBlur_278_3078" result="shape"/>
</filter>
<filter id="filter22_b_278_3078" x="132.385" y="103.125" width="39.8471" height="25.0936" filterUnits="userSpaceOnUse" color-interpolation-filters="sRGB">
<feFlood flood-opacity="0" result="BackgroundImageFix"/>
<feGaussianBlur in="BackgroundImageFix" stdDeviation="1.23496"/>
<feComposite in2="SourceAlpha" operator="in" result="effect1_backgroundBlur_278_3078"/>
<feBlend mode="normal" in="SourceGraphic" in2="effect1_backgroundBlur_278_3078" result="shape"/>
</filter>
<filter id="filter23_b_278_3078" x="154.224" y="92.1634" width="39.9682" height="25.0936" filterUnits="userSpaceOnUse" color-interpolation-filters="sRGB">
<feFlood flood-opacity="0" result="BackgroundImageFix"/>
<feGaussianBlur in="BackgroundImageFix" stdDeviation="1.23496"/>
<feComposite in2="SourceAlpha" operator="in" result="effect1_backgroundBlur_278_3078"/>
<feBlend mode="normal" in="SourceGraphic" in2="effect1_backgroundBlur_278_3078" result="shape"/>
</filter>
<filter id="filter24_b_278_3078" x="154.294" y="90.3397" width="39.8471" height="25.0936" filterUnits="userSpaceOnUse" color-interpolation-filters="sRGB">
<feFlood flood-opacity="0" result="BackgroundImageFix"/>
<feGaussianBlur in="BackgroundImageFix" stdDeviation="1.23496"/>
<feComposite in2="SourceAlpha" operator="in" result="effect1_backgroundBlur_278_3078"/>
<feBlend mode="normal" in="SourceGraphic" in2="effect1_backgroundBlur_278_3078" result="shape"/>
</filter>
<filter id="filter25_i_278_3078" x="168.648" y="99.1865" width="11.2305" height="6.78004" filterUnits="userSpaceOnUse" color-interpolation-filters="sRGB">
<feFlood flood-opacity="0" result="BackgroundImageFix"/>
<feBlend mode="normal" in="SourceGraphic" in2="BackgroundImageFix" result="shape"/>
<feColorMatrix in="SourceAlpha" type="matrix" values="0 0 0 0 0 0 0 0 0 0 0 0 0 0 0 0 0 0 127 0" result="hardAlpha"/>
<feOffset dy="0.677116"/>
<feGaussianBlur stdDeviation="0.145634"/>
<feComposite in2="hardAlpha" operator="arithmetic" k2="-1" k3="1"/>
<feColorMatrix type="matrix" values="0 0 0 0 1 0 0 0 0 1 0 0 0 0 1 0 0 0 1 0"/>
<feBlend mode="normal" in2="shape" result="effect1_innerShadow_278_3078"/>
</filter>
<filter id="filter26_i_278_3078" x="141.449" y="83.3618" width="19.458" height="11.5247" filterUnits="userSpaceOnUse" color-interpolation-filters="sRGB">
<feFlood flood-opacity="0" result="BackgroundImageFix"/>
<feBlend mode="normal" in="SourceGraphic" in2="BackgroundImageFix" result="shape"/>
<feColorMatrix in="SourceAlpha" type="matrix" values="0 0 0 0 0 0 0 0 0 0 0 0 0 0 0 0 0 0 127 0" result="hardAlpha"/>
<feOffset dy="0.677116"/>
<feGaussianBlur stdDeviation="0.145634"/>
<feComposite in2="hardAlpha" operator="arithmetic" k2="-1" k3="1"/>
<feColorMatrix type="matrix" values="0 0 0 0 1 0 0 0 0 1 0 0 0 0 1 0 0 0 1 0"/>
<feBlend mode="normal" in2="shape" result="effect1_innerShadow_278_3078"/>
</filter>
<filter id="filter27_i_278_3078" x="147.446" y="111.125" width="11.209" height="6.76246" filterUnits="userSpaceOnUse" color-interpolation-filters="sRGB">
<feFlood flood-opacity="0" result="BackgroundImageFix"/>
<feBlend mode="normal" in="SourceGraphic" in2="BackgroundImageFix" result="shape"/>
<feColorMatrix in="SourceAlpha" type="matrix" values="0 0 0 0 0 0 0 0 0 0 0 0 0 0 0 0 0 0 127 0" result="hardAlpha"/>
<feOffset dy="0.677116"/>
<feGaussianBlur stdDeviation="0.145634"/>
<feComposite in2="hardAlpha" operator="arithmetic" k2="-1" k3="1"/>
<feColorMatrix type="matrix" values="0 0 0 0 1 0 0 0 0 1 0 0 0 0 1 0 0 0 1 0"/>
<feBlend mode="normal" in2="shape" result="effect1_innerShadow_278_3078"/>
</filter>
<filter id="filter28_d_278_3078" x="81.7395" y="105.074" width="46.6275" height="33.5767" filterUnits="userSpaceOnUse" color-interpolation-filters="sRGB">
<feFlood flood-opacity="0" result="BackgroundImageFix"/>
<feColorMatrix in="SourceAlpha" type="matrix" values="0 0 0 0 0 0 0 0 0 0 0 0 0 0 0 0 0 0 127 0" result="hardAlpha"/>
<feOffset dy="5.27273"/>
<feGaussianBlur stdDeviation="2.89979"/>
<feComposite in2="hardAlpha" operator="out"/>
<feColorMatrix type="matrix" values="0 0 0 0 0.392188 0 0 0 0 0.892739 0 0 0 0 1 0 0 0 0.4 0"/>
<feBlend mode="normal" in2="BackgroundImageFix" result="effect1_dropShadow_278_3078"/>
<feBlend mode="normal" in="SourceGraphic" in2="effect1_dropShadow_278_3078" result="shape"/>
</filter>
<filter id="filter29_b_278_3078" x="85.0691" y="104.955" width="39.9682" height="25.0936" filterUnits="userSpaceOnUse" color-interpolation-filters="sRGB">
<feFlood flood-opacity="0" result="BackgroundImageFix"/>
<feGaussianBlur in="BackgroundImageFix" stdDeviation="1.23496"/>
<feComposite in2="SourceAlpha" operator="in" result="effect1_backgroundBlur_278_3078"/>
<feBlend mode="normal" in="SourceGraphic" in2="effect1_backgroundBlur_278_3078" result="shape"/>
</filter>
<filter id="filter30_b_278_3078" x="85.1385" y="103.131" width="39.8471" height="25.0936" filterUnits="userSpaceOnUse" color-interpolation-filters="sRGB">
<feFlood flood-opacity="0" result="BackgroundImageFix"/>
<feGaussianBlur in="BackgroundImageFix" stdDeviation="1.23496"/>
<feComposite in2="SourceAlpha" operator="in" result="effect1_backgroundBlur_278_3078"/>
<feBlend mode="normal" in="SourceGraphic" in2="effect1_backgroundBlur_278_3078" result="shape"/>
</filter>
<filter id="filter31_d_278_3078" x="104.763" y="118.507" width="46.6275" height="33.5772" filterUnits="userSpaceOnUse" color-interpolation-filters="sRGB">
<feFlood flood-opacity="0" result="BackgroundImageFix"/>
<feColorMatrix in="SourceAlpha" type="matrix" values="0 0 0 0 0 0 0 0 0 0 0 0 0 0 0 0 0 0 127 0" result="hardAlpha"/>
<feOffset dy="5.27273"/>
<feGaussianBlur stdDeviation="2.89979"/>
<feComposite in2="hardAlpha" operator="out"/>
<feColorMatrix type="matrix" values="0 0 0 0 0.578532 0 0 0 0 1 0 0 0 0 0.915706 0 0 0 0.64 0"/>
<feBlend mode="normal" in2="BackgroundImageFix" result="effect1_dropShadow_278_3078"/>
<feBlend mode="normal" in="SourceGraphic" in2="effect1_dropShadow_278_3078" result="shape"/>
</filter>
<filter id="filter32_b_278_3078" x="108.093" y="118.388" width="39.9682" height="25.0936" filterUnits="userSpaceOnUse" color-interpolation-filters="sRGB">
<feFlood flood-opacity="0" result="BackgroundImageFix"/>
<feGaussianBlur in="BackgroundImageFix" stdDeviation="1.23496"/>
<feComposite in2="SourceAlpha" operator="in" result="effect1_backgroundBlur_278_3078"/>
<feBlend mode="normal" in="SourceGraphic" in2="effect1_backgroundBlur_278_3078" result="shape"/>
</filter>
<filter id="filter33_b_278_3078" x="108.161" y="116.564" width="39.8471" height="25.0936" filterUnits="userSpaceOnUse" color-interpolation-filters="sRGB">
<feFlood flood-opacity="0" result="BackgroundImageFix"/>
<feGaussianBlur in="BackgroundImageFix" stdDeviation="1.23496"/>
<feComposite in2="SourceAlpha" operator="in" result="effect1_backgroundBlur_278_3078"/>
<feBlend mode="normal" in="SourceGraphic" in2="effect1_backgroundBlur_278_3078" result="shape"/>
</filter>
<linearGradient id="paint0_linear_278_3078" x1="123.501" y1="36.055" x2="124.753" y2="277.409" gradientUnits="userSpaceOnUse">
<stop stop-color="#ECFDFF" stop-opacity="0.38"/>
<stop offset="1" stop-color="#4EC4E2"/>
</linearGradient>
<linearGradient id="paint1_linear_278_3078" x1="105.39" y1="125.476" x2="120.691" y2="162.601" gradientUnits="userSpaceOnUse">
<stop stop-color="white"/>
<stop offset="1" stop-color="#8EE2F4"/>
</linearGradient>
<linearGradient id="paint2_linear_278_3078" x1="238.236" y1="97.7145" x2="167.822" y2="99.191" gradientUnits="userSpaceOnUse">
<stop stop-color="white"/>
<stop offset="1" stop-color="#8EE2F4"/>
</linearGradient>
<linearGradient id="paint3_linear_278_3078" x1="195.264" y1="55.631" x2="204.141" y2="55.7154" gradientUnits="userSpaceOnUse">
<stop stop-color="#90E3F5"/>
<stop offset="1" stop-color="#65C8DE"/>
</linearGradient>
<linearGradient id="paint4_linear_278_3078" x1="90.7529" y1="42.336" x2="95.3844" y2="46.8248" gradientUnits="userSpaceOnUse">
<stop stop-color="#90E3F5"/>
<stop offset="1" stop-color="#65C8DE"/>
</linearGradient>
<linearGradient id="paint5_linear_278_3078" x1="24.2656" y1="126.988" x2="49.4439" y2="127.135" gradientUnits="userSpaceOnUse">
<stop stop-color="#90E3F5"/>
<stop offset="1" stop-color="#65C8DE"/>
</linearGradient>
<linearGradient id="paint6_linear_278_3078" x1="156.417" y1="174.422" x2="181.595" y2="174.57" gradientUnits="userSpaceOnUse">
<stop stop-color="#90E3F5"/>
<stop offset="1" stop-color="#65C8DE"/>
</linearGradient>
<linearGradient id="paint7_linear_278_3078" x1="49.2846" y1="86.6848" x2="58.4259" y2="86.7384" gradientUnits="userSpaceOnUse">
<stop stop-color="#90E3F5"/>
<stop offset="1" stop-color="#65C8DE"/>
</linearGradient>
<linearGradient id="paint8_linear_278_3078" x1="40.8484" y1="170.098" x2="49.136" y2="162.883" gradientUnits="userSpaceOnUse">
<stop stop-color="#90E3F5"/>
<stop offset="1" stop-color="#65C8DE"/>
</linearGradient>
<linearGradient id="paint9_linear_278_3078" x1="174.682" y1="143.529" x2="182.718" y2="151.086" gradientUnits="userSpaceOnUse">
<stop stop-color="#90E3F5"/>
<stop offset="1" stop-color="#65C8DE"/>
</linearGradient>
<linearGradient id="paint10_linear_278_3078" x1="157.627" y1="81.6173" x2="164.97" y2="81.6604" gradientUnits="userSpaceOnUse">
<stop stop-color="#90E3F5"/>
<stop offset="1" stop-color="#65C8DE"/>
</linearGradient>
<linearGradient id="paint11_linear_278_3078" x1="112.416" y1="194.893" x2="132.86" y2="195.256" gradientUnits="userSpaceOnUse">
<stop stop-color="white"/>
<stop offset="1" stop-color="#BCF3FF"/>
</linearGradient>
<linearGradient id="paint12_linear_278_3078" x1="17.6406" y1="59.5122" x2="15.9907" y2="28.337" gradientUnits="userSpaceOnUse">
<stop stop-color="#8ECDF4"/>
<stop offset="1" stop-color="#ADF5FF"/>
</linearGradient>
<linearGradient id="paint13_linear_278_3078" x1="8.15063" y1="28.9216" x2="38.7162" y2="66.8476" gradientUnits="userSpaceOnUse">
<stop stop-color="white" stop-opacity="0.43"/>
<stop offset="0.846595" stop-color="white" stop-opacity="0.44"/>
<stop offset="1" stop-color="white" stop-opacity="0"/>
</linearGradient>
<linearGradient id="paint14_linear_278_3078" x1="10.3086" y1="32.3047" x2="43.8823" y2="69.1029" gradientUnits="userSpaceOnUse">
<stop stop-color="white" stop-opacity="0.09"/>
<stop offset="0.846595" stop-color="white" stop-opacity="0.79"/>
<stop offset="1" stop-color="white" stop-opacity="0.17"/>
</linearGradient>
<linearGradient id="paint15_linear_278_3078" x1="1.17651" y1="9.93885" x2="8.41479" y2="12.8818" gradientUnits="userSpaceOnUse">
<stop stop-color="#C2E9FF" stop-opacity="0.09"/>
<stop offset="0.846595" stop-color="#AFD7FF" stop-opacity="0.79"/>
<stop offset="1" stop-color="#79EFFF" stop-opacity="0.17"/>
</linearGradient>
<linearGradient id="paint16_linear_278_3078" x1="1.17651" y1="9.93885" x2="8.41479" y2="12.8818" gradientUnits="userSpaceOnUse">
<stop stop-color="#C2E9FF" stop-opacity="0.09"/>
<stop offset="0.846595" stop-color="#AFD7FF" stop-opacity="0.79"/>
<stop offset="1" stop-color="#79EFFF" stop-opacity="0.17"/>
</linearGradient>
<linearGradient id="paint17_linear_278_3078" x1="2.73823" y1="9.93885" x2="13.0952" y2="19.7396" gradientUnits="userSpaceOnUse">
<stop stop-color="white" stop-opacity="0.09"/>
<stop offset="0.846595" stop-color="white" stop-opacity="0.79"/>
<stop offset="1" stop-color="white" stop-opacity="0.17"/>
</linearGradient>
<linearGradient id="paint18_linear_278_3078" x1="2.73823" y1="9.93885" x2="13.0952" y2="19.7396" gradientUnits="userSpaceOnUse">
<stop stop-color="white" stop-opacity="0.09"/>
<stop offset="0.846595" stop-color="white" stop-opacity="0.79"/>
<stop offset="1" stop-color="white" stop-opacity="0.17"/>
</linearGradient>
<linearGradient id="paint19_linear_278_3078" x1="2.73823" y1="9.93885" x2="13.0952" y2="19.7396" gradientUnits="userSpaceOnUse">
<stop stop-color="white" stop-opacity="0.09"/>
<stop offset="0.846595" stop-color="white" stop-opacity="0.79"/>
<stop offset="1" stop-color="white" stop-opacity="0.17"/>
</linearGradient>
<linearGradient id="paint20_linear_278_3078" x1="2.73823" y1="9.93885" x2="13.0952" y2="19.7396" gradientUnits="userSpaceOnUse">
<stop stop-color="white" stop-opacity="0.09"/>
<stop offset="0.846595" stop-color="white" stop-opacity="0.79"/>
<stop offset="1" stop-color="white" stop-opacity="0.17"/>
</linearGradient>
<linearGradient id="paint21_linear_278_3078" x1="2.73823" y1="9.93885" x2="13.0952" y2="19.7396" gradientUnits="userSpaceOnUse">
<stop stop-color="white" stop-opacity="0.09"/>
<stop offset="0.846595" stop-color="white" stop-opacity="0.79"/>
<stop offset="1" stop-color="white" stop-opacity="0.17"/>
</linearGradient>
<linearGradient id="paint22_linear_278_3078" x1="2.73823" y1="9.93885" x2="13.0952" y2="19.7396" gradientUnits="userSpaceOnUse">
<stop stop-color="white" stop-opacity="0.09"/>
<stop offset="0.846595" stop-color="white" stop-opacity="0.79"/>
<stop offset="1" stop-color="white" stop-opacity="0.17"/>
</linearGradient>
<clipPath id="clip0_278_3078">
<rect width="252" height="252" fill="white"/>
</clipPath>
</defs>
</svg>
